<?xml version="1.0" encoding="utf-8" ?>
<svg baseProfile="full" height="330px" version="1.1" width="282px" xmlns="http://www.w3.org/2000/svg" xmlns:ev="http://www.w3.org/2001/xml-events" xmlns:xlink="http://www.w3.org/1999/xlink">
<defs></defs><rect fill="rgb(255,255,255)" fill-opacity="1.000" height="400px" stroke="none" width="282px" x="0" y="0"></rect><rect fill="none" height="4px" stroke="rgb(127,127,127)" stroke-opacity="0.498" stroke-width="1" width="4px" x="8.76" y="50.18"></rect><rect fill="none" height="4px" stroke="rgb(127,127,127)" stroke-opacity="0.498" stroke-width="1" width="4px" x="47.52" y="50.18"></rect><rect fill="none" height="4px" stroke="rgb(127,127,127)" stroke-opacity="0.498" stroke-width="1" width="4px" x="47.52" y="287.3"></rect><rect fill="none" height="4px" stroke="rgb(127,127,127)" stroke-opacity="0.498" stroke-width="1" width="4px" x="88.56" y="287.3"></rect><rect fill="none" height="4px" stroke="rgb(127,127,127)" stroke-opacity="0.498" stroke-width="1" width="4px" x="88.56" y="50.18"></rect><rect fill="none" height="4px" stroke="rgb(127,127,127)" stroke-opacity="0.498" stroke-width="1" width="4px" x="127.32" y="50.18"></rect><rect fill="none" height="4px" stroke="rgb(127,127,127)" stroke-opacity="0.498" stroke-width="1" width="4px" x="127.32" y="8.0"></rect><rect fill="none" height="4px" stroke="rgb(127,127,127)" stroke-opacity="0.498" stroke-width="1" width="4px" x="8.76" y="8.0"></rect><path d="M11,52
L50,52
L50,289
L91,289
L91,52
L129,52
L129,10
L11,10
L11,52
Z" fill="none" stroke="rgb(127,175,127)" stroke-opacity="0.498" stroke-width="2"></path><rect fill="none" height="4px" stroke="rgb(127,127,127)" stroke-opacity="0.498" stroke-width="1" width="4px" x="151.26" y="50.18"></rect><rect fill="none" height="4px" stroke="rgb(127,127,127)" stroke-opacity="0.498" stroke-width="1" width="4px" x="190.02" y="50.18"></rect><rect fill="none" height="4px" stroke="rgb(127,127,127)" stroke-opacity="0.498" stroke-width="1" width="4px" x="190.02" y="287.3"></rect><rect fill="none" height="4px" stroke="rgb(127,127,127)" stroke-opacity="0.498" stroke-width="1" width="4px" x="231.06" y="287.3"></rect><rect fill="none" height="4px" stroke="rgb(127,127,127)" stroke-opacity="0.498" stroke-width="1" width="4px" x="231.06" y="50.18"></rect><rect fill="none" height="4px" stroke="rgb(127,127,127)" stroke-opacity="0.498" stroke-width="1" width="4px" x="269.82" y="50.18"></rect><rect fill="none" height="4px" stroke="rgb(127,127,127)" stroke-opacity="0.498" stroke-width="1" width="4px" x="269.82" y="8.0"></rect><rect fill="none" height="4px" stroke="rgb(127,127,127)" stroke-opacity="0.498" stroke-width="1" width="4px" x="151.26" y="8.0"></rect><path d="M153,52
L192,52
L192,289
L233,289
L233,52
L272,52
L272,10
L153,10
L153,52
Z" fill="none" stroke="rgb(127,127,175)" stroke-opacity="0.498" stroke-width="2"></path>
<path d="M129,293
L129,10
Z" fill="none" stroke="rgb(223,223,223)" stroke-opacity="0.498" stroke-width="1"></path>
<path d="M153,293
L153,10
Z" fill="none" stroke="rgb(223,223,223)" stroke-opacity="0.498" stroke-width="1"></path>
<path d="M10,289
L272,289
Z" fill="none" stroke="rgb(223,223,223)" stroke-opacity="0.498" stroke-width="1"></path>
<path d="M10,10
L272,10
Z" fill="none" stroke="rgb(223,223,223)" stroke-opacity="0.498" stroke-width="1">
</path>

<path d="M129,293
L153,293
Z" fill="none" stroke="rgb(0,0,223)" stroke-opacity="0.498" stroke-width="3"/>
<text x="141" y="320" font-family="Lato, Helvetica, Arial, sans-serif;" font-size="14px" font-weight="bold" fill="#7f7fDF" text-anchor="middle">
    --min-distance-ems
</text>


<rect fill="none" height="330px" stroke="rgb(191,191,191)" stroke-opacity="0.498" stroke-width="1" width="282px" x="0" y="0"></rect></svg>
