<?xml version="1.0" encoding="utf-8" ?>
<svg baseProfile="full" height="360px" version="1.1" width="589px" xmlns="http://www.w3.org/2000/svg" xmlns:ev="http://www.w3.org/2001/xml-events" xmlns:xlink="http://www.w3.org/1999/xlink">
<defs></defs><rect fill="rgb(255,255,255)" fill-opacity="1.000" height="400px" stroke="none" width="589px" x="0" y="0"></rect><rect fill="none" height="4px" stroke="rgb(127,127,127)" stroke-opacity="0.498" stroke-width="1" width="4px" x="77.16" y="30.04"></rect><rect fill="none" height="4px" stroke="rgb(127,127,127)" stroke-opacity="0.498" stroke-width="1" width="4px" x="18.26" y="30.04"></rect><rect fill="none" height="4px" stroke="rgb(127,127,127)" stroke-opacity="0.498" stroke-width="1" width="4px" x="18.64" y="45.24"></rect><rect fill="none" height="4px" stroke="rgb(127,127,127)" stroke-opacity="0.498" stroke-width="1" width="4px" x="48.28" y="45.24"></rect><rect fill="none" height="4px" stroke="rgb(127,127,127)" stroke-opacity="0.498" stroke-width="1" width="4px" x="52.08" y="49.8"></rect><rect fill="none" height="4px" stroke="rgb(127,127,127)" stroke-opacity="0.498" stroke-width="1" width="4px" x="52.08" y="251.96"></rect><rect fill="none" height="4px" stroke="rgb(127,127,127)" stroke-opacity="0.498" stroke-width="1" width="4px" x="36.12" y="268.68"></rect><rect fill="none" height="4px" stroke="rgb(127,127,127)" stroke-opacity="0.498" stroke-width="1" width="4px" x="24.72" y="268.68"></rect><rect fill="none" height="4px" stroke="rgb(127,127,127)" stroke-opacity="0.498" stroke-width="1" width="4px" x="24.72" y="283.5"></rect><rect fill="none" height="4px" stroke="rgb(127,127,127)" stroke-opacity="0.498" stroke-width="1" width="4px" x="104.52" y="283.5"></rect><rect fill="none" height="4px" stroke="rgb(127,127,127)" stroke-opacity="0.498" stroke-width="1" width="4px" x="104.52" y="268.68"></rect><rect fill="none" height="4px" stroke="rgb(127,127,127)" stroke-opacity="0.498" stroke-width="1" width="4px" x="98.06" y="268.68"></rect><rect fill="none" height="4px" stroke="rgb(127,127,127)" stroke-opacity="0.498" stroke-width="1" width="4px" x="69.94" y="251.2"></rect><rect fill="none" height="4px" stroke="rgb(127,127,127)" stroke-opacity="0.498" stroke-width="1" width="4px" x="68.04" y="70.32"></rect><rect fill="none" height="4px" stroke="rgb(127,127,127)" stroke-opacity="0.498" stroke-width="1" width="4px" x="233.72" y="283.12"></rect><rect fill="none" height="4px" stroke="rgb(127,127,127)" stroke-opacity="0.498" stroke-width="1" width="4px" x="242.08" y="289.96"></rect><rect fill="none" height="4px" stroke="rgb(127,127,127)" stroke-opacity="0.498" stroke-width="1" width="4px" x="247.4" y="289.96"></rect><rect fill="none" height="4px" stroke="rgb(127,127,127)" stroke-opacity="0.498" stroke-width="1" width="4px" x="250.82" y="280.84"></rect><rect fill="none" height="4px" stroke="rgb(127,127,127)" stroke-opacity="0.498" stroke-width="1" width="4px" x="250.82" y="61.96"></rect><rect fill="none" height="4px" stroke="rgb(127,127,127)" stroke-opacity="0.498" stroke-width="1" width="4px" x="271.72" y="45.24"></rect><rect fill="none" height="4px" stroke="rgb(127,127,127)" stroke-opacity="0.498" stroke-width="1" width="4px" x="280.46" y="45.24"></rect><rect fill="none" height="4px" stroke="rgb(127,127,127)" stroke-opacity="0.498" stroke-width="1" width="4px" x="280.46" y="30.04"></rect><rect fill="none" height="4px" stroke="rgb(127,127,127)" stroke-opacity="0.498" stroke-width="1" width="4px" x="199.52" y="30.04"></rect><rect fill="none" height="4px" stroke="rgb(127,127,127)" stroke-opacity="0.498" stroke-width="1" width="4px" x="198.76" y="45.24"></rect><rect fill="none" height="4px" stroke="rgb(127,127,127)" stroke-opacity="0.498" stroke-width="1" width="4px" x="212.06" y="45.24"></rect><rect fill="none" height="4px" stroke="rgb(127,127,127)" stroke-opacity="0.498" stroke-width="1" width="4px" x="232.96" y="58.92"></rect><rect fill="none" height="4px" stroke="rgb(127,127,127)" stroke-opacity="0.498" stroke-width="1" width="4px" x="232.96" y="231.06"></rect><rect fill="none" height="4px" stroke="rgb(175,175,175)" stroke-opacity="0.498" stroke-width="1" width="4px" x="52.08" y="267.16"></rect><rect fill="none" height="4px" stroke="rgb(175,175,175)" stroke-opacity="0.498" stroke-width="1" width="4px" x="49.8" y="268.68"></rect><rect fill="none" height="4px" stroke="rgb(175,175,175)" stroke-opacity="0.498" stroke-width="1" width="4px" x="73.36" y="268.68"></rect><rect fill="none" height="4px" stroke="rgb(175,175,175)" stroke-opacity="0.498" stroke-width="1" width="4px" x="69.94" y="267.92"></rect><rect fill="none" height="4px" stroke="rgb(175,175,175)" stroke-opacity="0.498" stroke-width="1" width="4px" x="238.66" y="289.58"></rect><rect fill="none" height="4px" stroke="rgb(175,175,175)" stroke-opacity="0.498" stroke-width="1" width="4px" x="237.9" y="289.96"></rect><rect fill="none" height="4px" stroke="rgb(175,175,175)" stroke-opacity="0.498" stroke-width="1" width="4px" x="250.82" y="289.96"></rect><rect fill="none" height="4px" stroke="rgb(175,175,175)" stroke-opacity="0.498" stroke-width="1" width="4px" x="250.82" y="287.3"></rect><rect fill="none" height="4px" stroke="rgb(175,175,175)" stroke-opacity="0.498" stroke-width="1" width="4px" x="250.82" y="46.76"></rect><rect fill="none" height="4px" stroke="rgb(175,175,175)" stroke-opacity="0.498" stroke-width="1" width="4px" x="256.52" y="45.24"></rect><rect fill="none" height="4px" stroke="rgb(175,175,175)" stroke-opacity="0.498" stroke-width="1" width="4px" x="228.4" y="45.24"></rect><rect fill="none" height="4px" stroke="rgb(175,175,175)" stroke-opacity="0.498" stroke-width="1" width="4px" x="232.96" y="46.0"></rect><path d="M79,32
L20,32
L21,47
L50,47
L54,52
L54,254
C54,269 52,271 38,271
L27,271
L27,286
L107,286
L107,271
L100,271
C75,271 72,270 72,253
L70,72
L236,285
C241,292 240,292 244,292
L249,292
C253,292 253,289 253,283
L253,64
C253,49 259,47 274,47
L282,47
L282,32
L202,32
L201,47
L214,47
C230,47 235,48 235,61
L235,233
L79,32
Z" fill="none" stroke="rgb(127,175,127)" stroke-opacity="0.498" stroke-width="2"></path><rect fill="none" height="4px" stroke="rgb(127,127,127)" stroke-opacity="0.498" stroke-width="1" width="4px" x="373.56" y="30.04"></rect><rect fill="none" height="4px" stroke="rgb(127,127,127)" stroke-opacity="0.498" stroke-width="1" width="4px" x="314.66" y="30.04"></rect><rect fill="none" height="4px" stroke="rgb(127,127,127)" stroke-opacity="0.498" stroke-width="1" width="4px" x="315.04" y="45.24"></rect><rect fill="none" height="4px" stroke="rgb(127,127,127)" stroke-opacity="0.498" stroke-width="1" width="4px" x="344.68" y="45.24"></rect><rect fill="none" height="4px" stroke="rgb(127,127,127)" stroke-opacity="0.498" stroke-width="1" width="4px" x="348.48" y="49.8"></rect><rect fill="none" height="4px" stroke="rgb(127,127,127)" stroke-opacity="0.498" stroke-width="1" width="4px" x="348.48" y="251.96"></rect><rect fill="none" height="4px" stroke="rgb(127,127,127)" stroke-opacity="0.498" stroke-width="1" width="4px" x="332.52" y="268.68"></rect><rect fill="none" height="4px" stroke="rgb(127,127,127)" stroke-opacity="0.498" stroke-width="1" width="4px" x="321.12" y="268.68"></rect><rect fill="none" height="4px" stroke="rgb(127,127,127)" stroke-opacity="0.498" stroke-width="1" width="4px" x="321.12" y="283.5"></rect><rect fill="none" height="4px" stroke="rgb(127,127,127)" stroke-opacity="0.498" stroke-width="1" width="4px" x="400.92" y="283.5"></rect><rect fill="none" height="4px" stroke="rgb(127,127,127)" stroke-opacity="0.498" stroke-width="1" width="4px" x="400.92" y="268.68"></rect><rect fill="none" height="4px" stroke="rgb(127,127,127)" stroke-opacity="0.498" stroke-width="1" width="4px" x="394.46" y="268.68"></rect><rect fill="none" height="4px" stroke="rgb(127,127,127)" stroke-opacity="0.498" stroke-width="1" width="4px" x="366.34" y="251.2"></rect><rect fill="none" height="4px" stroke="rgb(127,127,127)" stroke-opacity="0.498" stroke-width="1" width="4px" x="364.44" y="70.32"></rect><rect fill="none" height="4px" stroke="rgb(127,127,127)" stroke-opacity="0.498" stroke-width="1" width="4px" x="530.12" y="283.12"></rect><rect fill="none" height="4px" stroke="rgb(127,127,127)" stroke-opacity="0.498" stroke-width="1" width="4px" x="538.48" y="289.96"></rect><rect fill="none" height="4px" stroke="rgb(127,127,127)" stroke-opacity="0.498" stroke-width="1" width="4px" x="543.8" y="289.96"></rect><rect fill="none" height="4px" stroke="rgb(127,127,127)" stroke-opacity="0.498" stroke-width="1" width="4px" x="547.22" y="280.84"></rect><rect fill="none" height="4px" stroke="rgb(127,127,127)" stroke-opacity="0.498" stroke-width="1" width="4px" x="547.22" y="61.96"></rect><rect fill="none" height="4px" stroke="rgb(127,127,127)" stroke-opacity="0.498" stroke-width="1" width="4px" x="568.12" y="45.24"></rect><rect fill="none" height="4px" stroke="rgb(127,127,127)" stroke-opacity="0.498" stroke-width="1" width="4px" x="576.86" y="45.24"></rect><rect fill="none" height="4px" stroke="rgb(127,127,127)" stroke-opacity="0.498" stroke-width="1" width="4px" x="576.86" y="30.04"></rect><rect fill="none" height="4px" stroke="rgb(127,127,127)" stroke-opacity="0.498" stroke-width="1" width="4px" x="495.92" y="30.04"></rect><rect fill="none" height="4px" stroke="rgb(127,127,127)" stroke-opacity="0.498" stroke-width="1" width="4px" x="495.16" y="45.24"></rect><rect fill="none" height="4px" stroke="rgb(127,127,127)" stroke-opacity="0.498" stroke-width="1" width="4px" x="508.46" y="45.24"></rect><rect fill="none" height="4px" stroke="rgb(127,127,127)" stroke-opacity="0.498" stroke-width="1" width="4px" x="529.36" y="58.92"></rect><rect fill="none" height="4px" stroke="rgb(127,127,127)" stroke-opacity="0.498" stroke-width="1" width="4px" x="529.36" y="231.06"></rect><rect fill="none" height="4px" stroke="rgb(175,175,175)" stroke-opacity="0.498" stroke-width="1" width="4px" x="348.48" y="267.16"></rect><rect fill="none" height="4px" stroke="rgb(175,175,175)" stroke-opacity="0.498" stroke-width="1" width="4px" x="346.2" y="268.68"></rect><rect fill="none" height="4px" stroke="rgb(175,175,175)" stroke-opacity="0.498" stroke-width="1" width="4px" x="369.76" y="268.68"></rect><rect fill="none" height="4px" stroke="rgb(175,175,175)" stroke-opacity="0.498" stroke-width="1" width="4px" x="366.34" y="267.92"></rect><rect fill="none" height="4px" stroke="rgb(175,175,175)" stroke-opacity="0.498" stroke-width="1" width="4px" x="535.06" y="289.58"></rect><rect fill="none" height="4px" stroke="rgb(175,175,175)" stroke-opacity="0.498" stroke-width="1" width="4px" x="534.3" y="289.96"></rect><rect fill="none" height="4px" stroke="rgb(175,175,175)" stroke-opacity="0.498" stroke-width="1" width="4px" x="547.22" y="289.96"></rect><rect fill="none" height="4px" stroke="rgb(175,175,175)" stroke-opacity="0.498" stroke-width="1" width="4px" x="547.22" y="287.3"></rect><rect fill="none" height="4px" stroke="rgb(175,175,175)" stroke-opacity="0.498" stroke-width="1" width="4px" x="547.22" y="46.76"></rect><rect fill="none" height="4px" stroke="rgb(175,175,175)" stroke-opacity="0.498" stroke-width="1" width="4px" x="552.92" y="45.24"></rect><rect fill="none" height="4px" stroke="rgb(175,175,175)" stroke-opacity="0.498" stroke-width="1" width="4px" x="524.8" y="45.24"></rect><rect fill="none" height="4px" stroke="rgb(175,175,175)" stroke-opacity="0.498" stroke-width="1" width="4px" x="529.36" y="46.0"></rect><path d="M376,32
L317,32
L317,47
L347,47
L350,52
L350,254
C350,269 348,271 335,271
L323,271
L323,286
L403,286
L403,271
L396,271
C372,271 368,270 368,253
L366,72
L532,285
C537,292 536,292 540,292
L546,292
C549,292 549,289 549,283
L549,64
C549,49 555,47 570,47
L579,47
L579,32
L498,32
L497,47
L510,47
C527,47 531,48 531,61
L531,233
L376,32
Z" fill="none" stroke="rgb(127,127,175)" stroke-opacity="0.498" stroke-width="2"></path>
<path d="M282,293
L282,10
Z" fill="none" stroke="rgb(223,223,223)" stroke-opacity="0.498" stroke-width="1"></path>
<path d="M317,293
L317,10
Z" fill="none" stroke="rgb(223,223,223)" stroke-opacity="0.498" stroke-width="1"></path>

<path d="M10,286
L579,286
Z" fill="none" stroke="rgb(223,223,223)" stroke-opacity="0.498" stroke-width="1"></path><path d="M10,10
L579,10
Z" fill="none" stroke="rgb(223,223,223)" stroke-opacity="0.498" stroke-width="1"></path>


<path d="M282,293
L317,293
Z" fill="none" stroke="rgb(0,0,223)" stroke-opacity="0.498" stroke-width="3"/>
<text x="300" y="320" font-family="Lato, Helvetica, Arial, sans-serif;" font-size="14px" font-weight="bold" fill="#7f7fDF" text-anchor="middle">
    --max-distance-ems
</text>

<text x="300" y="350" font-family="Lato, Helvetica, Arial, sans-serif;" font-size="20px" font-weight="bold" fill="#Ff5f5F" text-anchor="middle">
    Wrong
</text>


<rect fill="none" height="360px" stroke="rgb(191,191,191)" stroke-opacity="0.498" stroke-width="1" width="589px" x="0" y="0"></rect></svg>
