<?xml version="1.0" encoding="utf-8" ?>
<svg baseProfile="full" height="340px" version="1.1" width="309px" xmlns="http://www.w3.org/2000/svg" xmlns:ev="http://www.w3.org/2001/xml-events" xmlns:xlink="http://www.w3.org/1999/xlink">
<defs></defs><rect fill="rgb(255,255,255)" fill-opacity="1.000" height="400px" stroke="none" width="309px" x="0" y="0"></rect><rect fill="none" height="4px" stroke="rgb(127,127,127)" stroke-opacity="0.498" stroke-width="1" width="4px" x="66.52" y="141.76"></rect><rect fill="none" height="4px" stroke="rgb(127,127,127)" stroke-opacity="0.498" stroke-width="1" width="4px" x="106.42" y="287.3"></rect><rect fill="none" height="4px" stroke="rgb(127,127,127)" stroke-opacity="0.498" stroke-width="1" width="4px" x="142.9" y="287.3"></rect><rect fill="none" height="4px" stroke="rgb(127,127,127)" stroke-opacity="0.498" stroke-width="1" width="4px" x="142.9" y="8.0"></rect><rect fill="none" height="4px" stroke="rgb(127,127,127)" stroke-opacity="0.498" stroke-width="1" width="4px" x="105.28" y="8.0"></rect><rect fill="none" height="4px" stroke="rgb(127,127,127)" stroke-opacity="0.498" stroke-width="1" width="4px" x="105.28" y="153.54"></rect><rect fill="none" height="4px" stroke="rgb(127,127,127)" stroke-opacity="0.498" stroke-width="1" width="4px" x="105.28" y="166.46"></rect><rect fill="none" height="4px" stroke="rgb(127,127,127)" stroke-opacity="0.498" stroke-width="1" width="4px" x="103.0" y="166.46"></rect><rect fill="none" height="4px" stroke="rgb(127,127,127)" stroke-opacity="0.498" stroke-width="1" width="4px" x="99.58" y="153.54"></rect><rect fill="none" height="4px" stroke="rgb(127,127,127)" stroke-opacity="0.498" stroke-width="1" width="4px" x="59.68" y="8.0"></rect><rect fill="none" height="4px" stroke="rgb(127,127,127)" stroke-opacity="0.498" stroke-width="1" width="4px" x="23.2" y="8.0"></rect><rect fill="none" height="4px" stroke="rgb(127,127,127)" stroke-opacity="0.498" stroke-width="1" width="4px" x="23.2" y="287.3"></rect><rect fill="none" height="4px" stroke="rgb(127,127,127)" stroke-opacity="0.498" stroke-width="1" width="4px" x="60.82" y="287.3"></rect><rect fill="none" height="4px" stroke="rgb(127,127,127)" stroke-opacity="0.498" stroke-width="1" width="4px" x="60.82" y="141.76"></rect><rect fill="none" height="4px" stroke="rgb(127,127,127)" stroke-opacity="0.498" stroke-width="1" width="4px" x="60.82" y="128.84"></rect><rect fill="none" height="4px" stroke="rgb(127,127,127)" stroke-opacity="0.498" stroke-width="1" width="4px" x="63.1" y="128.84"></rect><rect fill="none" height="4px" stroke="rgb(175,175,175)" stroke-opacity="0.498" stroke-width="1" width="4px" x="106.42" y="287.3"></rect><rect fill="none" height="4px" stroke="rgb(175,175,175)" stroke-opacity="0.498" stroke-width="1" width="4px" x="142.9" y="287.3"></rect><rect fill="none" height="4px" stroke="rgb(175,175,175)" stroke-opacity="0.498" stroke-width="1" width="4px" x="142.9" y="287.3"></rect><rect fill="none" height="4px" stroke="rgb(175,175,175)" stroke-opacity="0.498" stroke-width="1" width="4px" x="142.9" y="8.0"></rect><rect fill="none" height="4px" stroke="rgb(175,175,175)" stroke-opacity="0.498" stroke-width="1" width="4px" x="99.58" y="153.54"></rect><rect fill="none" height="4px" stroke="rgb(175,175,175)" stroke-opacity="0.498" stroke-width="1" width="4px" x="59.68" y="8.0"></rect><rect fill="none" height="4px" stroke="rgb(175,175,175)" stroke-opacity="0.498" stroke-width="1" width="4px" x="59.68" y="8.0"></rect><rect fill="none" height="4px" stroke="rgb(175,175,175)" stroke-opacity="0.498" stroke-width="1" width="4px" x="23.2" y="8.0"></rect><rect fill="none" height="4px" stroke="rgb(175,175,175)" stroke-opacity="0.498" stroke-width="1" width="4px" x="23.2" y="8.0"></rect><rect fill="none" height="4px" stroke="rgb(175,175,175)" stroke-opacity="0.498" stroke-width="1" width="4px" x="23.2" y="287.3"></rect><path d="M69,144
L108,289
C108,289 145,289 145,289
C145,289 145,10 145,10
L107,10
L107,156
L107,168
L105,168
L102,156
C102,156 62,10 62,10
C62,10 25,10 25,10
C25,10 25,289 25,289
L63,289
L63,144
L63,131
L65,131
L69,144
Z" fill="none" stroke="rgb(127,175,127)" stroke-opacity="0.498" stroke-width="2"></path><rect fill="none" height="4px" stroke="rgb(127,127,127)" stroke-opacity="0.498" stroke-width="1" width="4px" x="220.42" y="141.76"></rect><rect fill="none" height="4px" stroke="rgb(127,127,127)" stroke-opacity="0.498" stroke-width="1" width="4px" x="260.32" y="287.3"></rect><rect fill="none" height="4px" stroke="rgb(127,127,127)" stroke-opacity="0.498" stroke-width="1" width="4px" x="296.8" y="287.3"></rect><rect fill="none" height="4px" stroke="rgb(127,127,127)" stroke-opacity="0.498" stroke-width="1" width="4px" x="296.8" y="8.0"></rect><rect fill="none" height="4px" stroke="rgb(127,127,127)" stroke-opacity="0.498" stroke-width="1" width="4px" x="259.18" y="8.0"></rect><rect fill="none" height="4px" stroke="rgb(127,127,127)" stroke-opacity="0.498" stroke-width="1" width="4px" x="259.18" y="153.54"></rect><rect fill="none" height="4px" stroke="rgb(127,127,127)" stroke-opacity="0.498" stroke-width="1" width="4px" x="259.18" y="166.46"></rect><rect fill="none" height="4px" stroke="rgb(127,127,127)" stroke-opacity="0.498" stroke-width="1" width="4px" x="256.9" y="166.46"></rect><rect fill="none" height="4px" stroke="rgb(127,127,127)" stroke-opacity="0.498" stroke-width="1" width="4px" x="253.48" y="153.54"></rect><rect fill="none" height="4px" stroke="rgb(127,127,127)" stroke-opacity="0.498" stroke-width="1" width="4px" x="213.58" y="8.0"></rect><rect fill="none" height="4px" stroke="rgb(127,127,127)" stroke-opacity="0.498" stroke-width="1" width="4px" x="177.1" y="8.0"></rect><rect fill="none" height="4px" stroke="rgb(127,127,127)" stroke-opacity="0.498" stroke-width="1" width="4px" x="177.1" y="287.3"></rect><rect fill="none" height="4px" stroke="rgb(127,127,127)" stroke-opacity="0.498" stroke-width="1" width="4px" x="214.72" y="287.3"></rect><rect fill="none" height="4px" stroke="rgb(127,127,127)" stroke-opacity="0.498" stroke-width="1" width="4px" x="214.72" y="141.76"></rect><rect fill="none" height="4px" stroke="rgb(127,127,127)" stroke-opacity="0.498" stroke-width="1" width="4px" x="214.72" y="128.84"></rect><rect fill="none" height="4px" stroke="rgb(127,127,127)" stroke-opacity="0.498" stroke-width="1" width="4px" x="217.0" y="128.84"></rect><rect fill="none" height="4px" stroke="rgb(175,175,175)" stroke-opacity="0.498" stroke-width="1" width="4px" x="260.32" y="287.3"></rect><rect fill="none" height="4px" stroke="rgb(175,175,175)" stroke-opacity="0.498" stroke-width="1" width="4px" x="296.8" y="287.3"></rect><rect fill="none" height="4px" stroke="rgb(175,175,175)" stroke-opacity="0.498" stroke-width="1" width="4px" x="296.8" y="287.3"></rect><rect fill="none" height="4px" stroke="rgb(175,175,175)" stroke-opacity="0.498" stroke-width="1" width="4px" x="296.8" y="8.0"></rect><rect fill="none" height="4px" stroke="rgb(175,175,175)" stroke-opacity="0.498" stroke-width="1" width="4px" x="253.48" y="153.54"></rect><rect fill="none" height="4px" stroke="rgb(175,175,175)" stroke-opacity="0.498" stroke-width="1" width="4px" x="213.58" y="8.0"></rect><rect fill="none" height="4px" stroke="rgb(175,175,175)" stroke-opacity="0.498" stroke-width="1" width="4px" x="213.58" y="8.0"></rect><rect fill="none" height="4px" stroke="rgb(175,175,175)" stroke-opacity="0.498" stroke-width="1" width="4px" x="177.1" y="8.0"></rect><rect fill="none" height="4px" stroke="rgb(175,175,175)" stroke-opacity="0.498" stroke-width="1" width="4px" x="177.1" y="8.0"></rect><rect fill="none" height="4px" stroke="rgb(175,175,175)" stroke-opacity="0.498" stroke-width="1" width="4px" x="177.1" y="287.3"></rect><path d="M222,144
L262,289
C262,289 299,289 299,289
C299,289 299,10 299,10
L261,10
L261,156
L261,168
L259,168
L255,156
C255,156 216,10 216,10
C216,10 179,10 179,10
C179,10 179,289 179,289
L217,289
L217,144
L217,131
L219,131
L222,144
Z" fill="none" stroke="rgb(127,127,175)" stroke-opacity="0.498" stroke-width="2"></path>
<path d="M145,300
L145,10
Z" fill="none" stroke="rgb(223,223,223)" stroke-opacity="0.498" stroke-width="1"></path>
<path d="M179,300
L179,10
Z" fill="none" stroke="rgb(223,223,223)" stroke-opacity="0.498" stroke-width="1"></path>
<path d="M10,289
L299,289
Z" fill="none" stroke="rgb(223,223,223)" stroke-opacity="0.498" stroke-width="1"></path>
<path d="M10,10
L299,10
Z" fill="none" stroke="rgb(223,223,223)" stroke-opacity="0.498" stroke-width="1"></path>

<path d="M145,300
L179,300
Z" fill="none" stroke="rgb(0,0,223)" stroke-opacity="0.498" stroke-width="3"/>
<text x="162" y="320" font-family="Lato, Helvetica, Arial, sans-serif;" font-size="14px" font-weight="bold" fill="#7f7fDF" text-anchor="middle">
    --max-distance-ems
</text>

<rect fill="none" height="340px" stroke="rgb(191,191,191)" stroke-opacity="0.498" stroke-width="1" width="309px" x="0" y="0"></rect></svg>


