<?xml version="1.0" encoding="utf-8" ?>
<svg baseProfile="full" height="350px" version="1.1" width="567px" xmlns="http://www.w3.org/2000/svg" xmlns:ev="http://www.w3.org/2001/xml-events" xmlns:xlink="http://www.w3.org/1999/xlink">

<defs></defs><rect fill="rgb(255,255,255)" fill-opacity="1.000" height="350px" stroke="none" width="567px" x="0" y="0"></rect><rect fill="none" height="4px" stroke="rgb(127,127,127)" stroke-opacity="0.498" stroke-width="1" width="4px" x="77.16" y="30.04"></rect><rect fill="none" height="4px" stroke="rgb(127,127,127)" stroke-opacity="0.498" stroke-width="1" width="4px" x="18.26" y="30.04"></rect><rect fill="none" height="4px" stroke="rgb(127,127,127)" stroke-opacity="0.498" stroke-width="1" width="4px" x="18.64" y="45.24"></rect><rect fill="none" height="4px" stroke="rgb(127,127,127)" stroke-opacity="0.498" stroke-width="1" width="4px" x="48.28" y="45.24"></rect><rect fill="none" height="4px" stroke="rgb(127,127,127)" stroke-opacity="0.498" stroke-width="1" width="4px" x="52.08" y="49.8"></rect><rect fill="none" height="4px" stroke="rgb(127,127,127)" stroke-opacity="0.498" stroke-width="1" width="4px" x="52.08" y="251.96"></rect><rect fill="none" height="4px" stroke="rgb(127,127,127)" stroke-opacity="0.498" stroke-width="1" width="4px" x="36.12" y="268.68"></rect><rect fill="none" height="4px" stroke="rgb(127,127,127)" stroke-opacity="0.498" stroke-width="1" width="4px" x="24.72" y="268.68"></rect><rect fill="none" height="4px" stroke="rgb(127,127,127)" stroke-opacity="0.498" stroke-width="1" width="4px" x="24.72" y="283.5"></rect><rect fill="none" height="4px" stroke="rgb(127,127,127)" stroke-opacity="0.498" stroke-width="1" width="4px" x="104.52" y="283.5"></rect><rect fill="none" height="4px" stroke="rgb(127,127,127)" stroke-opacity="0.498" stroke-width="1" width="4px" x="104.52" y="268.68"></rect><rect fill="none" height="4px" stroke="rgb(127,127,127)" stroke-opacity="0.498" stroke-width="1" width="4px" x="98.06" y="268.68"></rect><rect fill="none" height="4px" stroke="rgb(127,127,127)" stroke-opacity="0.498" stroke-width="1" width="4px" x="69.94" y="251.2"></rect><rect fill="none" height="4px" stroke="rgb(127,127,127)" stroke-opacity="0.498" stroke-width="1" width="4px" x="68.04" y="70.32"></rect><rect fill="none" height="4px" stroke="rgb(127,127,127)" stroke-opacity="0.498" stroke-width="1" width="4px" x="233.72" y="283.12"></rect><rect fill="none" height="4px" stroke="rgb(127,127,127)" stroke-opacity="0.498" stroke-width="1" width="4px" x="242.08" y="289.96"></rect><rect fill="none" height="4px" stroke="rgb(127,127,127)" stroke-opacity="0.498" stroke-width="1" width="4px" x="247.4" y="289.96"></rect><rect fill="none" height="4px" stroke="rgb(127,127,127)" stroke-opacity="0.498" stroke-width="1" width="4px" x="250.82" y="280.84"></rect><rect fill="none" height="4px" stroke="rgb(127,127,127)" stroke-opacity="0.498" stroke-width="1" width="4px" x="250.82" y="61.96"></rect><rect fill="none" height="4px" stroke="rgb(127,127,127)" stroke-opacity="0.498" stroke-width="1" width="4px" x="271.72" y="45.24"></rect><rect fill="none" height="4px" stroke="rgb(127,127,127)" stroke-opacity="0.498" stroke-width="1" width="4px" x="280.46" y="45.24"></rect><rect fill="none" height="4px" stroke="rgb(127,127,127)" stroke-opacity="0.498" stroke-width="1" width="4px" x="280.46" y="30.04"></rect><rect fill="none" height="4px" stroke="rgb(127,127,127)" stroke-opacity="0.498" stroke-width="1" width="4px" x="199.52" y="30.04"></rect><rect fill="none" height="4px" stroke="rgb(127,127,127)" stroke-opacity="0.498" stroke-width="1" width="4px" x="198.76" y="45.24"></rect><rect fill="none" height="4px" stroke="rgb(127,127,127)" stroke-opacity="0.498" stroke-width="1" width="4px" x="212.06" y="45.24"></rect><rect fill="none" height="4px" stroke="rgb(127,127,127)" stroke-opacity="0.498" stroke-width="1" width="4px" x="232.96" y="58.92"></rect><rect fill="none" height="4px" stroke="rgb(127,127,127)" stroke-opacity="0.498" stroke-width="1" width="4px" x="232.96" y="231.06"></rect><rect fill="none" height="4px" stroke="rgb(175,175,175)" stroke-opacity="0.498" stroke-width="1" width="4px" x="52.08" y="267.16"></rect><rect fill="none" height="4px" stroke="rgb(175,175,175)" stroke-opacity="0.498" stroke-width="1" width="4px" x="49.8" y="268.68"></rect><rect fill="none" height="4px" stroke="rgb(175,175,175)" stroke-opacity="0.498" stroke-width="1" width="4px" x="73.36" y="268.68"></rect><rect fill="none" height="4px" stroke="rgb(175,175,175)" stroke-opacity="0.498" stroke-width="1" width="4px" x="69.94" y="267.92"></rect><rect fill="none" height="4px" stroke="rgb(175,175,175)" stroke-opacity="0.498" stroke-width="1" width="4px" x="238.66" y="289.58"></rect><rect fill="none" height="4px" stroke="rgb(175,175,175)" stroke-opacity="0.498" stroke-width="1" width="4px" x="237.9" y="289.96"></rect><rect fill="none" height="4px" stroke="rgb(175,175,175)" stroke-opacity="0.498" stroke-width="1" width="4px" x="250.82" y="289.96"></rect><rect fill="none" height="4px" stroke="rgb(175,175,175)" stroke-opacity="0.498" stroke-width="1" width="4px" x="250.82" y="287.3"></rect><rect fill="none" height="4px" stroke="rgb(175,175,175)" stroke-opacity="0.498" stroke-width="1" width="4px" x="250.82" y="46.76"></rect><rect fill="none" height="4px" stroke="rgb(175,175,175)" stroke-opacity="0.498" stroke-width="1" width="4px" x="256.52" y="45.24"></rect><rect fill="none" height="4px" stroke="rgb(175,175,175)" stroke-opacity="0.498" stroke-width="1" width="4px" x="228.4" y="45.24"></rect><rect fill="none" height="4px" stroke="rgb(175,175,175)" stroke-opacity="0.498" stroke-width="1" width="4px" x="232.96" y="46.0"></rect><path d="M79,32
L20,32
L21,47
L50,47
L54,52
L54,254
C54,269 52,271 38,271
L27,271
L27,286
L107,286
L107,271
L100,271
C75,271 72,270 72,253
L70,72
L236,285
C241,292 240,292 244,292
L249,292
C253,292 253,289 253,283
L253,64
C253,49 259,47 274,47
L282,47
L282,32
L202,32
L201,47
L214,47
C230,47 235,48 235,61
L235,233
L79,32
Z" fill="none" stroke="rgb(127,175,127)" stroke-opacity="0.498" stroke-width="2"></path><rect fill="none" height="4px" stroke="rgb(127,127,127)" stroke-opacity="0.498" stroke-width="1" width="4px" x="350.76" y="30.04"></rect><rect fill="none" height="4px" stroke="rgb(127,127,127)" stroke-opacity="0.498" stroke-width="1" width="4px" x="291.86" y="30.04"></rect><rect fill="none" height="4px" stroke="rgb(127,127,127)" stroke-opacity="0.498" stroke-width="1" width="4px" x="292.24" y="45.24"></rect><rect fill="none" height="4px" stroke="rgb(127,127,127)" stroke-opacity="0.498" stroke-width="1" width="4px" x="321.88" y="45.24"></rect><rect fill="none" height="4px" stroke="rgb(127,127,127)" stroke-opacity="0.498" stroke-width="1" width="4px" x="325.68" y="49.8"></rect><rect fill="none" height="4px" stroke="rgb(127,127,127)" stroke-opacity="0.498" stroke-width="1" width="4px" x="325.68" y="251.96"></rect><rect fill="none" height="4px" stroke="rgb(127,127,127)" stroke-opacity="0.498" stroke-width="1" width="4px" x="309.72" y="268.68"></rect><rect fill="none" height="4px" stroke="rgb(127,127,127)" stroke-opacity="0.498" stroke-width="1" width="4px" x="298.32" y="268.68"></rect><rect fill="none" height="4px" stroke="rgb(127,127,127)" stroke-opacity="0.498" stroke-width="1" width="4px" x="298.32" y="283.5"></rect><rect fill="none" height="4px" stroke="rgb(127,127,127)" stroke-opacity="0.498" stroke-width="1" width="4px" x="378.12" y="283.5"></rect><rect fill="none" height="4px" stroke="rgb(127,127,127)" stroke-opacity="0.498" stroke-width="1" width="4px" x="378.12" y="268.68"></rect><rect fill="none" height="4px" stroke="rgb(127,127,127)" stroke-opacity="0.498" stroke-width="1" width="4px" x="371.66" y="268.68"></rect><rect fill="none" height="4px" stroke="rgb(127,127,127)" stroke-opacity="0.498" stroke-width="1" width="4px" x="343.54" y="251.2"></rect><rect fill="none" height="4px" stroke="rgb(127,127,127)" stroke-opacity="0.498" stroke-width="1" width="4px" x="341.64" y="70.32"></rect><rect fill="none" height="4px" stroke="rgb(127,127,127)" stroke-opacity="0.498" stroke-width="1" width="4px" x="507.32" y="283.12"></rect><rect fill="none" height="4px" stroke="rgb(127,127,127)" stroke-opacity="0.498" stroke-width="1" width="4px" x="515.68" y="289.96"></rect><rect fill="none" height="4px" stroke="rgb(127,127,127)" stroke-opacity="0.498" stroke-width="1" width="4px" x="521.0" y="289.96"></rect><rect fill="none" height="4px" stroke="rgb(127,127,127)" stroke-opacity="0.498" stroke-width="1" width="4px" x="524.42" y="280.84"></rect><rect fill="none" height="4px" stroke="rgb(127,127,127)" stroke-opacity="0.498" stroke-width="1" width="4px" x="524.42" y="61.96"></rect><rect fill="none" height="4px" stroke="rgb(127,127,127)" stroke-opacity="0.498" stroke-width="1" width="4px" x="545.32" y="45.24"></rect><rect fill="none" height="4px" stroke="rgb(127,127,127)" stroke-opacity="0.498" stroke-width="1" width="4px" x="554.06" y="45.24"></rect><rect fill="none" height="4px" stroke="rgb(127,127,127)" stroke-opacity="0.498" stroke-width="1" width="4px" x="554.06" y="30.04"></rect><rect fill="none" height="4px" stroke="rgb(127,127,127)" stroke-opacity="0.498" stroke-width="1" width="4px" x="473.12" y="30.04"></rect><rect fill="none" height="4px" stroke="rgb(127,127,127)" stroke-opacity="0.498" stroke-width="1" width="4px" x="472.36" y="45.24"></rect><rect fill="none" height="4px" stroke="rgb(127,127,127)" stroke-opacity="0.498" stroke-width="1" width="4px" x="485.66" y="45.24"></rect><rect fill="none" height="4px" stroke="rgb(127,127,127)" stroke-opacity="0.498" stroke-width="1" width="4px" x="506.56" y="58.92"></rect><rect fill="none" height="4px" stroke="rgb(127,127,127)" stroke-opacity="0.498" stroke-width="1" width="4px" x="506.56" y="231.06"></rect><rect fill="none" height="4px" stroke="rgb(175,175,175)" stroke-opacity="0.498" stroke-width="1" width="4px" x="325.68" y="267.16"></rect><rect fill="none" height="4px" stroke="rgb(175,175,175)" stroke-opacity="0.498" stroke-width="1" width="4px" x="323.4" y="268.68"></rect><rect fill="none" height="4px" stroke="rgb(175,175,175)" stroke-opacity="0.498" stroke-width="1" width="4px" x="346.96" y="268.68"></rect><rect fill="none" height="4px" stroke="rgb(175,175,175)" stroke-opacity="0.498" stroke-width="1" width="4px" x="343.54" y="267.92"></rect><rect fill="none" height="4px" stroke="rgb(175,175,175)" stroke-opacity="0.498" stroke-width="1" width="4px" x="512.26" y="289.58"></rect><rect fill="none" height="4px" stroke="rgb(175,175,175)" stroke-opacity="0.498" stroke-width="1" width="4px" x="511.5" y="289.96"></rect><rect fill="none" height="4px" stroke="rgb(175,175,175)" stroke-opacity="0.498" stroke-width="1" width="4px" x="524.42" y="289.96"></rect><rect fill="none" height="4px" stroke="rgb(175,175,175)" stroke-opacity="0.498" stroke-width="1" width="4px" x="524.42" y="287.3"></rect><rect fill="none" height="4px" stroke="rgb(175,175,175)" stroke-opacity="0.498" stroke-width="1" width="4px" x="524.42" y="46.76"></rect><rect fill="none" height="4px" stroke="rgb(175,175,175)" stroke-opacity="0.498" stroke-width="1" width="4px" x="530.12" y="45.24"></rect><rect fill="none" height="4px" stroke="rgb(175,175,175)" stroke-opacity="0.498" stroke-width="1" width="4px" x="502.0" y="45.24"></rect><rect fill="none" height="4px" stroke="rgb(175,175,175)" stroke-opacity="0.498" stroke-width="1" width="4px" x="506.56" y="46.0"></rect><path d="M353,32
L294,32
L294,47
L324,47
L328,52
L328,254
C328,269 325,271 312,271
L300,271
L300,286
L380,286
L380,271
L374,271
C349,271 346,270 346,253
L344,72
L509,285
C514,292 514,292 518,292
L523,292
C526,292 526,289 526,283
L526,64
C526,49 532,47 547,47
L556,47
L556,32
L475,32
L474,47
L488,47
C504,47 509,48 509,61
L509,233
L353,32
Z" fill="none" stroke="rgb(127,127,175)" stroke-opacity="0.498" stroke-width="2"></path>
<path d="M282,300
L282,10
Z" fill="none" stroke="rgb(223,223,223)" stroke-opacity="0.498" stroke-width="1"></path>
<path d="M294,300
L294,10
Z" fill="none" stroke="rgb(223,223,223)" stroke-opacity="0.498" stroke-width="1"></path>
<path d="M10,286
L556,286
Z" fill="none" stroke="rgb(223,223,223)" stroke-opacity="0.498" stroke-width="1"></path>
<path d="M10,10
L556,10
Z" fill="none" stroke="rgb(223,223,223)" stroke-opacity="0.498" stroke-width="1"></path>

<path d="M282,300
L294,300
Z" fill="none" stroke="rgb(0,0,223)" stroke-opacity="0.498" stroke-width="3"/>
<text x="288" y="320" font-family="Lato, Helvetica, Arial, sans-serif;" font-size="14px" font-weight="bold" fill="#7f7fDF" text-anchor="middle">
    --min-distance-ems
</text>


<rect fill="none" height="350px" stroke="rgb(191,191,191)" stroke-opacity="0.498" stroke-width="1" width="567px" x="0" y="0"></rect></svg>
