<?xml version="1.0" encoding="utf-8" ?>
<svg baseProfile="full" height="400px" version="1.1" width="517px" xmlns="http://www.w3.org/2000/svg" xmlns:ev="http://www.w3.org/2001/xml-events" xmlns:xlink="http://www.w3.org/1999/xlink">

<defs></defs><rect fill="rgb(255,255,255)" fill-opacity="1.000" height="400px" stroke="none" width="517px" x="0" y="0"></rect><rect fill="none" height="4px" stroke="rgb(127,127,127)" stroke-opacity="0.498" stroke-width="1" width="4px" x="18.26" y="30.04"></rect><rect fill="none" height="4px" stroke="rgb(127,127,127)" stroke-opacity="0.498" stroke-width="1" width="4px" x="18.26" y="45.24"></rect><rect fill="none" height="4px" stroke="rgb(127,127,127)" stroke-opacity="0.498" stroke-width="1" width="4px" x="31.56" y="45.24"></rect><rect fill="none" height="4px" stroke="rgb(127,127,127)" stroke-opacity="0.498" stroke-width="1" width="4px" x="60.44" y="74.88"></rect><rect fill="none" height="4px" stroke="rgb(127,127,127)" stroke-opacity="0.498" stroke-width="1" width="4px" x="148.6" y="289.2"></rect><rect fill="none" height="4px" stroke="rgb(127,127,127)" stroke-opacity="0.498" stroke-width="1" width="4px" x="155.06" y="289.2"></rect><rect fill="none" height="4px" stroke="rgb(127,127,127)" stroke-opacity="0.498" stroke-width="1" width="4px" x="240.18" y="97.68"></rect><rect fill="none" height="4px" stroke="rgb(127,127,127)" stroke-opacity="0.498" stroke-width="1" width="4px" x="275.52" y="45.24"></rect><rect fill="none" height="4px" stroke="rgb(127,127,127)" stroke-opacity="0.498" stroke-width="1" width="4px" x="286.54" y="45.24"></rect><rect fill="none" height="4px" stroke="rgb(127,127,127)" stroke-opacity="0.498" stroke-width="1" width="4px" x="287.3" y="30.04"></rect><rect fill="none" height="4px" stroke="rgb(127,127,127)" stroke-opacity="0.498" stroke-width="1" width="4px" x="210.16" y="30.04"></rect><rect fill="none" height="4px" stroke="rgb(127,127,127)" stroke-opacity="0.498" stroke-width="1" width="4px" x="210.92" y="45.24"></rect><rect fill="none" height="4px" stroke="rgb(127,127,127)" stroke-opacity="0.498" stroke-width="1" width="4px" x="223.08" y="45.24"></rect><rect fill="none" height="4px" stroke="rgb(127,127,127)" stroke-opacity="0.498" stroke-width="1" width="4px" x="241.7" y="52.84"></rect><rect fill="none" height="4px" stroke="rgb(127,127,127)" stroke-opacity="0.498" stroke-width="1" width="4px" x="239.8" y="60.06"></rect><rect fill="none" height="4px" stroke="rgb(127,127,127)" stroke-opacity="0.498" stroke-width="1" width="4px" x="160.0" y="243.6"></rect><rect fill="none" height="4px" stroke="rgb(127,127,127)" stroke-opacity="0.498" stroke-width="1" width="4px" x="89.32" y="68.04"></rect><rect fill="none" height="4px" stroke="rgb(127,127,127)" stroke-opacity="0.498" stroke-width="1" width="4px" x="84.0" y="50.18"></rect><rect fill="none" height="4px" stroke="rgb(127,127,127)" stroke-opacity="0.498" stroke-width="1" width="4px" x="93.12" y="45.24"></rect><rect fill="none" height="4px" stroke="rgb(127,127,127)" stroke-opacity="0.498" stroke-width="1" width="4px" x="113.26" y="45.24"></rect><rect fill="none" height="4px" stroke="rgb(127,127,127)" stroke-opacity="0.498" stroke-width="1" width="4px" x="113.64" y="30.04"></rect><rect fill="none" height="4px" stroke="rgb(175,175,175)" stroke-opacity="0.498" stroke-width="1" width="4px" x="48.28" y="45.24"></rect><rect fill="none" height="4px" stroke="rgb(175,175,175)" stroke-opacity="0.498" stroke-width="1" width="4px" x="49.04" y="47.52"></rect><rect fill="none" height="4px" stroke="rgb(175,175,175)" stroke-opacity="0.498" stroke-width="1" width="4px" x="261.08" y="50.56"></rect><rect fill="none" height="4px" stroke="rgb(175,175,175)" stroke-opacity="0.498" stroke-width="1" width="4px" x="261.08" y="45.24"></rect><rect fill="none" height="4px" stroke="rgb(175,175,175)" stroke-opacity="0.498" stroke-width="1" width="4px" x="233.34" y="45.24"></rect><rect fill="none" height="4px" stroke="rgb(175,175,175)" stroke-opacity="0.498" stroke-width="1" width="4px" x="241.7" y="45.62"></rect><rect fill="none" height="4px" stroke="rgb(175,175,175)" stroke-opacity="0.498" stroke-width="1" width="4px" x="241.7" y="54.74"></rect><rect fill="none" height="4px" stroke="rgb(175,175,175)" stroke-opacity="0.498" stroke-width="1" width="4px" x="240.94" y="57.02"></rect><rect fill="none" height="4px" stroke="rgb(175,175,175)" stroke-opacity="0.498" stroke-width="1" width="4px" x="85.14" y="57.78"></rect><rect fill="none" height="4px" stroke="rgb(175,175,175)" stroke-opacity="0.498" stroke-width="1" width="4px" x="84.0" y="53.6"></rect><rect fill="none" height="4px" stroke="rgb(175,175,175)" stroke-opacity="0.498" stroke-width="1" width="4px" x="84.0" y="45.62"></rect><rect fill="none" height="4px" stroke="rgb(175,175,175)" stroke-opacity="0.498" stroke-width="1" width="4px" x="87.04" y="45.24"></rect><path d="M20,32
L20,47
L34,47
C50,47 51,50 62,77
L151,291
L157,291
L242,100
C263,53 263,47 278,47
L289,47
L289,32
L212,32
L213,47
L225,47
C235,47 244,48 244,55
C244,57 243,59 242,62
L162,246
L91,70
C87,60 86,56 86,52
C86,48 89,47 95,47
L115,47
L116,32
L20,32
Z" fill="none" stroke="rgb(127,175,127)" stroke-opacity="0.498" stroke-width="2"></path><rect fill="none" height="4px" stroke="rgb(127,127,127)" stroke-opacity="0.498" stroke-width="1" width="4px" x="253.86" y="268.68"></rect><rect fill="none" height="4px" stroke="rgb(127,127,127)" stroke-opacity="0.498" stroke-width="1" width="4px" x="249.3" y="268.68"></rect><rect fill="none" height="4px" stroke="rgb(127,127,127)" stroke-opacity="0.498" stroke-width="1" width="4px" x="249.68" y="283.5"></rect><rect fill="none" height="4px" stroke="rgb(127,127,127)" stroke-opacity="0.498" stroke-width="1" width="4px" x="323.4" y="283.5"></rect><rect fill="none" height="4px" stroke="rgb(127,127,127)" stroke-opacity="0.498" stroke-width="1" width="4px" x="323.4" y="268.68"></rect><rect fill="none" height="4px" stroke="rgb(127,127,127)" stroke-opacity="0.498" stroke-width="1" width="4px" x="307.82" y="268.68"></rect><rect fill="none" height="4px" stroke="rgb(127,127,127)" stroke-opacity="0.498" stroke-width="1" width="4px" x="292.24" y="262.22"></rect><rect fill="none" height="4px" stroke="rgb(127,127,127)" stroke-opacity="0.498" stroke-width="1" width="4px" x="296.04" y="250.06"></rect><rect fill="none" height="4px" stroke="rgb(127,127,127)" stroke-opacity="0.498" stroke-width="1" width="4px" x="326.06" y="183.18"></rect><rect fill="none" height="4px" stroke="rgb(127,127,127)" stroke-opacity="0.498" stroke-width="1" width="4px" x="414.22" y="183.18"></rect><rect fill="none" height="4px" stroke="rgb(127,127,127)" stroke-opacity="0.498" stroke-width="1" width="4px" x="442.34" y="252.34"></rect><rect fill="none" height="4px" stroke="rgb(127,127,127)" stroke-opacity="0.498" stroke-width="1" width="4px" x="446.14" y="264.12"></rect><rect fill="none" height="4px" stroke="rgb(127,127,127)" stroke-opacity="0.498" stroke-width="1" width="4px" x="429.42" y="268.68"></rect><rect fill="none" height="4px" stroke="rgb(127,127,127)" stroke-opacity="0.498" stroke-width="1" width="4px" x="418.02" y="268.68"></rect><rect fill="none" height="4px" stroke="rgb(127,127,127)" stroke-opacity="0.498" stroke-width="1" width="4px" x="417.64" y="283.5"></rect><rect fill="none" height="4px" stroke="rgb(127,127,127)" stroke-opacity="0.498" stroke-width="1" width="4px" x="504.28" y="283.5"></rect><rect fill="none" height="4px" stroke="rgb(127,127,127)" stroke-opacity="0.498" stroke-width="1" width="4px" x="504.66" y="268.68"></rect><rect fill="none" height="4px" stroke="rgb(127,127,127)" stroke-opacity="0.498" stroke-width="1" width="4px" x="498.96" y="268.68"></rect><rect fill="none" height="4px" stroke="rgb(127,127,127)" stroke-opacity="0.498" stroke-width="1" width="4px" x="465.9" y="224.6"></rect><rect fill="none" height="4px" stroke="rgb(127,127,127)" stroke-opacity="0.498" stroke-width="1" width="4px" x="383.44" y="20.92"></rect><rect fill="none" height="4px" stroke="rgb(127,127,127)" stroke-opacity="0.498" stroke-width="1" width="4px" x="375.46" y="20.92"></rect><rect fill="none" height="4px" stroke="rgb(127,127,127)" stroke-opacity="0.498" stroke-width="1" width="4px" x="336.7" y="115.16"></rect><rect fill="none" height="4px" stroke="rgb(127,127,127)" stroke-opacity="0.498" stroke-width="1" width="4px" x="280.46" y="240.56"></rect><rect fill="none" height="4px" stroke="rgb(175,175,175)" stroke-opacity="0.498" stroke-width="1" width="4px" x="295.66" y="268.68"></rect><rect fill="none" height="4px" stroke="rgb(175,175,175)" stroke-opacity="0.498" stroke-width="1" width="4px" x="292.24" y="268.3"></rect><rect fill="none" height="4px" stroke="rgb(175,175,175)" stroke-opacity="0.498" stroke-width="1" width="4px" x="292.24" y="259.56"></rect><rect fill="none" height="4px" stroke="rgb(175,175,175)" stroke-opacity="0.498" stroke-width="1" width="4px" x="294.14" y="254.62"></rect><rect fill="none" height="4px" stroke="rgb(175,175,175)" stroke-opacity="0.498" stroke-width="1" width="4px" x="444.62" y="258.42"></rect><rect fill="none" height="4px" stroke="rgb(175,175,175)" stroke-opacity="0.498" stroke-width="1" width="4px" x="446.14" y="261.84"></rect><rect fill="none" height="4px" stroke="rgb(175,175,175)" stroke-opacity="0.498" stroke-width="1" width="4px" x="446.14" y="268.3"></rect><rect fill="none" height="4px" stroke="rgb(175,175,175)" stroke-opacity="0.498" stroke-width="1" width="4px" x="440.82" y="268.68"></rect><rect fill="none" height="4px" stroke="rgb(175,175,175)" stroke-opacity="0.498" stroke-width="1" width="4px" x="483.38" y="268.68"></rect><rect fill="none" height="4px" stroke="rgb(175,175,175)" stroke-opacity="0.498" stroke-width="1" width="4px" x="482.62" y="265.64"></rect><rect fill="none" height="4px" stroke="rgb(175,175,175)" stroke-opacity="0.498" stroke-width="1" width="4px" x="434.74" y="149.36"></rect><rect fill="none" height="4px" stroke="rgb(175,175,175)" stroke-opacity="0.498" stroke-width="1" width="4px" x="398.26" y="59.68"></rect><rect fill="none" height="4px" stroke="rgb(175,175,175)" stroke-opacity="0.498" stroke-width="1" width="4px" x="331.38" y="127.7"></rect><rect fill="none" height="4px" stroke="rgb(175,175,175)" stroke-opacity="0.498" stroke-width="1" width="4px" x="331.0" y="127.7"></rect><rect fill="none" height="4px" stroke="rgb(175,175,175)" stroke-opacity="0.498" stroke-width="1" width="4px" x="268.68" y="266.78"></rect><rect fill="none" height="4px" stroke="rgb(175,175,175)" stroke-opacity="0.498" stroke-width="1" width="4px" x="268.3" y="268.68"></rect><path d="M256,271
L251,271
L252,286
L325,286
L325,271
L310,271
C298,271 294,270 294,264
C294,262 296,257 298,252
L328,185
L416,185
L444,254
C447,260 448,264 448,266
C448,270 443,271 431,271
L420,271
L420,286
L506,286
L507,271
L501,271
C485,271 485,268 468,227
C437,151 400,62 385,23
L377,23
L339,117
C333,130 333,130 282,243
C271,269 270,271 256,271
Z" fill="none" stroke="rgb(127,127,175)" stroke-opacity="0.498" stroke-width="2"></path><rect fill="none" height="4px" stroke="rgb(127,127,127)" stroke-opacity="0.498" stroke-width="1" width="4px" x="407.76" y="166.46"></rect><rect fill="none" height="4px" stroke="rgb(127,127,127)" stroke-opacity="0.498" stroke-width="1" width="4px" x="333.28" y="166.46"></rect><rect fill="none" height="4px" stroke="rgb(127,127,127)" stroke-opacity="0.498" stroke-width="1" width="4px" x="371.66" y="76.4"></rect><path d="M410,168
L335,168
L374,78
L410,168
Z" fill="none" stroke="rgb(127,127,175)" stroke-opacity="0.498" stroke-width="2"></path>
<path d="M251,300
L251,10
Z" fill="none" stroke="rgb(223,223,223)" stroke-opacity="0.498" stroke-width="1"></path>
<path d="M289,300
L289,10
Z" fill="none" stroke="rgb(223,223,223)" stroke-opacity="0.498" stroke-width="1"></path>
<path d="M10,286
L507,286
Z" fill="none" stroke="rgb(223,223,223)" stroke-opacity="0.498" stroke-width="1"></path>
<path d="M10,10
L507,10
Z" fill="none" stroke="rgb(223,223,223)" stroke-opacity="0.498" stroke-width="1"></path>


<path d="M251,300
L289,300
Z" fill="none" stroke="rgb(0,0,223)" stroke-opacity="0.498" stroke-width="3"/>
<text x="270" y="320" font-family="Lato, Helvetica, Arial, sans-serif;" font-size="14px" font-weight="bold" fill="#7f7fDF" text-anchor="middle">
    --max-x-extrema-overlap-ems
</text>


<rect fill="none" height="400px" stroke="rgb(191,191,191)" stroke-opacity="0.498" stroke-width="1" width="517px" x="0" y="0"></rect></svg>


