<?xml version="1.0" encoding="utf-8" ?>
<svg baseProfile="full" height="250px" version="1.1" width="639px" xmlns="http://www.w3.org/2000/svg" xmlns:ev="http://www.w3.org/2001/xml-events" xmlns:xlink="http://www.w3.org/1999/xlink">

<defs></defs><rect fill="rgb(255,255,255)" fill-opacity="1.000" height="250px" stroke="none" width="639px" x="0" y="0"></rect><path d="M10,20
L74,20
L74,43
L53,43
L53,170
L31,170
L31,43
L10,43
L10,20
Z" fill="rgb(127,175,127)" fill-opacity="0.498" stroke="none"></path><path d="M66,210
L66,192
C66,192 68,192 71,192
C80,191 84,182 84,174
L65,58
L86,58
L94,127
L94,133
L95,133
L96,127
L104,58
L124,58
L104,179
C102,194 92,210 75,210
C73,210 66,210 66,210
Z" fill="rgb(127,175,127)" fill-opacity="0.498" stroke="none"></path><path d="M149,58
L149,66
C149,66 158,57 165,57
C177,57 181,70 181,79
L181,150
C181,159 177,172 165,172
C158,172 149,163 149,163
L149,209
L128,209
L128,58
L149,58
Z" fill="rgb(127,175,127)" fill-opacity="0.498" stroke="none"></path><path d="M248,86
L248,143
C248,143 248,172 221,172
C195,172 195,143 195,143
L195,86
C195,86 195,57 221,57
C248,57 248,86 248,86
Z" fill="rgb(127,175,127)" fill-opacity="0.498" stroke="none"></path><path d="M312,85
L312,116
C312,116 311,144 285,144
C284,144 282,144 281,144
C279,145 278,147 278,149
C278,154 286,155 294,156
C307,158 323,162 323,182
C323,204 304,210 287,210
C267,210 254,205 254,189
C254,181 262,175 270,172
C263,170 258,165 258,157
C258,151 265,143 271,140
C259,132 259,116 259,116
L259,85
C259,85 259,57 285,57
C295,57 302,62 306,67
C308,64 316,57 323,57
L323,75
C317,75 313,76 311,78
C312,82 312,85 312,85
Z" fill="rgb(127,175,127)" fill-opacity="0.498" stroke="none"></path><path d="M371,57
L371,80
C371,80 361,77 355,82
C351,86 350,89 350,93
C350,156 350,147 350,170
L329,170
L329,58
L350,58
L350,71
C351,68 356,57 371,57
Z" fill="rgb(127,175,127)" fill-opacity="0.498" stroke="none"></path><path d="M388,172
C383,172 372,168 372,144
C372,107 404,104 406,97
C406,96 406,95 406,94
C406,92 406,87 406,85
C406,81 406,75 401,75
C394,75 395,85 395,91
L374,91
C374,91 374,88 374,87
C374,70 386,57 402,57
C415,57 427,68 427,82
L427,117
C427,124 427,143 427,151
C427,161 428,165 429,170
C409,170 408,170 408,170
C406,168 406,163 406,161
L405,161
C403,165 397,172 388,172
Z" fill="rgb(127,175,127)" fill-opacity="0.498" stroke="none"></path><path d="M464,58
L464,66
C464,66 472,57 480,57
C491,57 496,70 496,79
L496,150
C496,159 491,172 480,172
C472,172 464,163 464,163
L464,209
L443,209
L443,58
L464,58
Z" fill="rgb(127,175,127)" fill-opacity="0.498" stroke="none"></path><path d="M544,170
L544,82
C544,77 541,77 539,77
C535,77 532,82 532,82
C532,146 532,147 532,170
L511,170
L511,20
L532,20
L532,68
C534,67 542,57 549,57
C560,57 564,70 564,79
L564,170
L544,170
Z" fill="rgb(127,175,127)" fill-opacity="0.498" stroke="none"></path><path d="M571,210
L571,192
C571,192 573,192 576,192
C585,191 589,182 589,174
L570,58
L591,58
L599,127
L599,133
L600,133
L600,127
L609,58
L629,58
L609,179
C607,194 597,210 580,210
C578,210 571,210 571,210
Z" fill="rgb(127,175,127)" fill-opacity="0.498" stroke="none"></path><path d="M155,76
C152,76 149,79 149,83
C149,108 149,124 149,146
C149,149 152,153 155,153
C158,153 161,150 161,146
L161,83
C161,79 158,76 155,76
Z" fill="rgb(255,255,255)" fill-opacity="1.000" stroke="none"></path><path d="M228,143
L228,86
C228,86 229,75 221,75
C214,75 214,86 214,86
L214,143
C214,143 214,154 221,154
C229,154 228,143 228,143
Z" fill="rgb(255,255,255)" fill-opacity="1.000" stroke="none"></path><path d="M291,117
L291,86
C291,86 292,76 285,76
C278,76 279,86 279,86
L279,117
C279,117 278,127 285,127
C292,127 291,117 291,117
Z" fill="rgb(255,255,255)" fill-opacity="1.000" stroke="none"></path><path d="M288,193
C295,193 303,191 303,186
C303,182 303,179 292,178
L282,175
C277,178 274,181 274,185
C274,190 278,193 288,193
Z" fill="rgb(255,255,255)" fill-opacity="1.000" stroke="none"></path><path d="M406,145
L406,116
C396,121 392,131 392,141
C392,144 393,152 398,152
C403,152 406,149 406,145
Z" fill="rgb(255,255,255)" fill-opacity="1.000" stroke="none"></path><path d="M470,76
C467,76 464,79 464,83
C464,108 464,124 464,146
C464,149 467,153 470,153
C473,153 475,150 475,146
L475,83
C475,79 473,76 470,76
Z" fill="rgb(255,255,255)" fill-opacity="1.000" stroke="none"></path><text dominant-baseline="text-before-edge" fill="rgb(167,0,0)" fill-opacity="0.875" font-family="Lato, Helvetica, Arial, sans-serif;" text-anchor="middle" x="70" y="230">-41 (-50)</text><text dominant-baseline="text-before-edge" fill="rgb(167,0,0)" fill-opacity="0.875" font-family="Lato, Helvetica, Arial, sans-serif;" text-anchor="middle" x="126" y="230">21 (-31)</text><text dominant-baseline="text-before-edge" fill="rgb(0,0,0)" fill-opacity="0.875" font-family="Lato, Helvetica, Arial, sans-serif;" text-anchor="middle" x="188" y="230">65 (-1)</text><text dominant-baseline="text-before-edge" fill="rgb(0,0,0)" fill-opacity="0.875" font-family="Lato, Helvetica, Arial, sans-serif;" text-anchor="middle" x="251" y="230">30 (-6)</text><text dominant-baseline="text-before-edge" fill="rgb(0,0,0)" fill-opacity="0.875" font-family="Lato, Helvetica, Arial, sans-serif;" text-anchor="middle" x="326" y="230">33 (-8)</text><text dominant-baseline="text-before-edge" fill="rgb(83,0,0)" fill-opacity="0.875" font-family="Lato, Helvetica, Arial, sans-serif;" text-anchor="middle" x="371" y="230">6 (-14)</text><text dominant-baseline="text-before-edge" fill="rgb(0,0,0)" fill-opacity="0.875" font-family="Lato, Helvetica, Arial, sans-serif;" text-anchor="middle" x="436" y="230">70 (-2)</text><text dominant-baseline="text-before-edge" fill="rgb(0,0,0)" fill-opacity="0.875" font-family="Lato, Helvetica, Arial, sans-serif;" text-anchor="middle" x="504" y="230">76 (0)</text><text dominant-baseline="text-before-edge" fill="rgb(167,0,0)" fill-opacity="0.875" font-family="Lato, Helvetica, Arial, sans-serif;" text-anchor="middle" x="567" y="230">29 (-21)</text><path d="M10,170
L629,170
Z" fill="none" stroke="rgb(223,223,223)" stroke-opacity="0.498" stroke-width="1"></path><path d="M10,20
L629,20
Z" fill="none" stroke="rgb(223,223,223)" stroke-opacity="0.498" stroke-width="1"></path><path d="M10,225
L629,225
Z" fill="none" stroke="rgb(223,223,223)" stroke-opacity="0.498" stroke-width="1"></path><rect fill="none" height="250px" stroke="rgb(191,191,191)" stroke-opacity="0.498" stroke-width="1" width="639px" x="0" y="0"></rect></svg>
